<svg width="86" height="85" xmlns="http://www.w3.org/2000/svg">
 <!-- Created with Method Draw - http://github.com/duopixel/Method-Draw/ -->
 <g>
  <title>background</title>
  <rect fill="#fff" id="canvas_background" height="87" width="88" y="-1" x="-1"/>
  <g display="none" overflow="visible" y="0" x="0" height="100%" width="100%" id="canvasGrid">
   <rect fill="url(#gridpattern)" stroke-width="0" y="0" x="0" height="100%" width="100%"/>
  </g>
 </g>
 <g>
  <title>Layer 1</title>
  <text font-style="normal" stroke="#000" transform="matrix(0.46352864160368706,0,0,0.5816993713378906,71.92657309074184,29.92156684398651) " font-weight="bold" xml:space="preserve" text-anchor="start" font-family="Georgia, Times, 'Times New Roman', serif" font-size="26" id="svg_3" y="81.24649" x="-137.60091" stroke-width="0" fill="#3E2A3C">JCMR</text>
  <path transform="rotate(-17.47478485107422 42.713165283203125,17.705863952636705) " id="svg_15" d="m31.216896,18.521612c2.871851,0 5.572026,1.26591 7.600422,3.562407c2.033062,2.297547 3.150826,5.358843 3.150826,8.616591l4.427204,0c0,-9.463332 -6.81015,-17.160694 -15.179385,-17.160694l0,4.981696l0.000933,0zm0.005598,-8.833004c10.238084,0 18.565332,9.428664 18.565332,21.017254l4.425338,0c0,-14.335771 -10.313659,-26.000001 -22.991603,-26.000001l0,4.982747l0.000933,0zm6.120644,17.534689c0,1.906744 -1.37248,3.45315 -3.064987,3.45315s-3.064987,-1.546406 -3.064987,-3.45315c0,-1.904643 1.37248,-3.451049 3.064987,-3.451049s3.064987,1.545355 3.064987,3.451049z" fill-opacity="null" stroke-opacity="null" stroke-width="0" stroke="#000" fill="#3E2A3C"/>
  <path stroke="#000" id="svg_14" d="m49.661362,59.76634l-2.325473,-5.778087c0.681501,-0.424391 1.321156,-0.87849 1.924942,-1.364418l8.133178,1.650882c0.857854,-0.886978 1.596147,-1.829126 2.256725,-2.807348l-6.052806,-4.159034c0.289937,-0.611123 0.541016,-1.232857 0.720359,-1.873687l8.15709,-1.451418c0.059781,-0.534733 0.116573,-1.071588 0.116573,-1.619053s-0.059781,-1.082198 -0.116573,-1.616931l-8.15709,-1.451418c-0.182331,-0.640831 -0.433411,-1.262564 -0.720359,-1.873687l6.055795,-4.159034c-0.663567,-0.9761 -1.40186,-1.92037 -2.259714,-2.807348l-8.133178,1.64876c-0.600797,-0.483806 -1.243441,-0.937905 -1.924942,-1.364418l2.325473,-5.775965c-1.249419,-0.606879 -2.579542,-1.133125 -3.957489,-1.602077l-5.858518,4.299083c-0.857854,-0.20583 -1.736632,-0.381952 -2.639322,-0.511391l-2.041514,-5.79294c-0.756227,-0.040317 -1.509465,-0.082756 -2.280638,-0.082756s-1.52441,0.042439 -2.277648,0.082756l-2.044503,5.79294c-0.90269,0.129439 -1.778479,0.305562 -2.639322,0.511391l-5.858518,-4.299083c-1.374958,0.475318 -2.702092,0.999441 -3.951511,1.608443l2.325473,5.775965c-0.681501,0.424391 -1.324145,0.880612 -1.921953,1.362296l-8.136167,-1.650882c-0.857854,0.886978 -1.596147,1.831248 -2.256725,2.80947l6.055795,4.159034c-0.286948,0.611123 -0.538027,1.232857 -0.720359,1.873687l-8.160079,1.451418c-0.056792,0.534733 -0.116573,1.071588 -0.116573,1.616931s0.059781,1.082198 0.116573,1.619053l8.160079,1.451418c0.182331,0.640831 0.433411,1.262564 0.720359,1.873687l-6.055795,4.159034c0.660578,0.9761 1.398871,1.92037 2.256725,2.807348l8.136167,-1.650882c0.597808,0.485928 1.240452,0.937905 1.921953,1.364418l-2.325473,5.778087c1.249419,0.606879 2.579542,1.131003 3.9545,1.602077l5.858518,-4.299083c0.860844,0.20583 1.736632,0.384074 2.639322,0.511391l2.044503,5.790818c0.753238,0.042439 1.509465,0.082756 2.280638,0.082756s1.52441,-0.042439 2.280638,-0.082756l2.041514,-5.790818c0.90269,-0.129439 1.781468,-0.307684 2.639322,-0.511391l5.858518,4.299083c1.371969,-0.475318 2.702092,-0.999441 3.951511,-1.606321zm-16.774492,-10.187512c-5.610428,0 -10.159747,-3.229617 -10.159747,-7.212529s4.549319,-7.210407 10.159747,-7.210407s10.156758,3.227495 10.156758,7.210407s-4.54633,7.212529 -10.156758,7.212529zm46.306208,15.076499c0.056792,-1.16071 -0.179342,-2.34264 -0.687479,-3.509716l3.718366,-3.762228c-0.56194,-0.742685 -1.195616,-1.447174 -1.915975,-2.088005l-6.342743,0.94427c-1.279309,-0.772392 -2.734972,-1.375028 -4.292261,-1.805785l-1.826303,-4.411547c-1.153769,-0.144293 -2.322484,-0.222805 -3.506144,-0.224927l-2.911325,4.108107c-0.833942,0.114586 -1.667884,0.27161 -2.486881,0.494416c-0.768183,0.207952 -1.485553,0.46683 -2.173032,0.749051l-5.996014,-1.737882c-0.887745,0.555953 -1.697775,1.156466 -2.43009,1.807907l2.711059,4.17601c-0.774161,1.050368 -1.30621,2.181371 -1.551312,3.363301l-5.652275,2.249274c0.056792,0.823319 0.227167,1.646638 0.490203,2.472079l6.28894,1.101295c0.690468,1.111905 1.617071,2.107102 2.737961,2.955885l-1.052142,4.536742c0.956493,0.48805 1.972766,0.908197 3.027898,1.273174l5.126204,-2.800982c1.602125,0.299196 3.278977,0.413781 4.967784,0.318293l4.340086,3.409984c0.597808,-0.120952 1.192627,-0.250391 1.781468,-0.409538c0.523082,-0.140049 1.016274,-0.305562 1.509465,-0.473196l0.110594,-4.594035c1.360013,-0.719343 2.519761,-1.585101 3.443374,-2.559079l6.459315,-0.284342c0.454334,-0.761782 0.833942,-1.553272 1.099967,-2.365981l-4.988708,-2.932543zm-12.443373,4.258766c-3.589837,0.971856 -7.607107,-0.305562 -8.979076,-2.854031s0.427433,-5.4025 4.01727,-6.376478c3.589837,-0.971856 7.613085,0.305562 8.985054,2.854031c1.36898,2.548469 -0.433411,5.4025 -4.023248,6.376478z" fill-opacity="null" stroke-opacity="null" stroke-width="0" fill="#3E2A3C"/>
  <path stroke="#000" id="svg_17" d="m63.987301,50.94596c-3.191896,-0.598247 -5.041052,-3.057771 -4.822934,-5.28897c-0.081713,-2.914363 0.298864,-5.981017 -1.673634,-8.66074c-1.124298,-2.000789 -3.039552,-3.767309 -3.838816,-5.852348c-0.994601,-3.234797 0.233943,-6.901113 3.935613,-9.072757c4.174611,-2.527324 10.841147,-2.856732 15.436565,-0.70866c3.241182,1.577373 5.579769,4.179005 5.492889,7.017996c0.380315,2.121356 -0.804687,4.116675 -2.198711,5.940326c-0.998761,1.468351 -2.165168,2.905204 -3.071697,4.389928c-0.238984,3.044233 -0.101922,6.116388 -0.75014,9.134436c-1.079811,2.338641 -5.149205,3.928685 -8.509135,3.100787l0,0.000001zm8.430273,-5.443139c-1.894301,-0.721424 -4.6164,-0.252389 -6.818248,-0.4077c-1.798618,0.254174 -4.994571,-0.521331 -5.950753,0.641959c2.186728,0.604372 4.756592,0.151325 7.084571,0.251316c1.862734,-0.1264 4.00585,0.119866 5.68443,-0.485576l0,0.000001zm-0.141869,-1.357511c0.278777,-1.832843 -3.823483,-0.897576 -5.489974,-1.170421c-2.205711,0.315432 -5.7159,-0.675192 -7.103117,0.733042c0.822023,1.415168 4.488025,0.419896 6.41311,0.733885c2.052908,-0.051397 4.1827,0.051985 6.179979,-0.296506l0.000002,0zm0.025541,-3.2113c0.54155,-3.570424 3.631387,-6.543255 5.42054,-9.809286c1.471025,-3.910377 -1.442297,-8.377802 -6.716833,-10.019213c-5.249991,-1.838348 -12.244679,-0.449587 -15.211623,3.152617c-2.858672,2.975514 -2.313114,7.018407 0.480879,9.91207c1.993584,2.52891 3.584158,5.370873 3.325059,8.313945c4.138214,0 8.27643,0 12.414648,0c0.095782,-0.516703 0.191531,-1.033441 0.287331,-1.550133zm-9.161317,-5.058324c-1.639578,-2.014188 -3.322725,-4.043897 -4.464446,-6.226783c1.026479,-0.938784 1.325088,-1.984491 1.643961,-3.087516c2.881023,-0.399826 -0.366721,2.319647 2.353374,2.38093c2.414498,0.742226 1.355294,-3.601518 3.361305,-2.035803c-1.439985,1.71836 2.828513,3.427804 2.98517,0.96961c-0.206929,-1.856053 2.579994,-1.508305 1.49343,0.175517c0.089681,0.866188 2.085747,1.114513 2.119922,1.811177c-1.436969,2.202179 -2.686003,4.475757 -4.387537,6.583968c-0.382997,-0.816242 1.506358,-2.862014 2.110081,-4.063199c1.164964,-1.038322 2.166031,-3.836514 -0.870959,-3.455091c-1.761722,1.941418 -4.131613,-1.223767 -5.856585,0.636791c-1.464321,0.308607 -3.767377,-1.791745 -4.192162,0.227783c1.102864,2.398682 3.39768,4.442968 4.598367,6.816889c-0.407425,-0.169717 -0.639423,-0.467472 -0.893922,-0.734274l0,0.000001zm-2.301326,-8.790876c-0.797284,-0.274922 0.336048,1.461539 -0.000016,0l0.000016,0zm4.765354,0.205101c-1.034959,-1.237517 -0.479893,1.501496 0,0zm4.618983,0c-1.034959,-1.237517 -0.4799,1.501496 0,0zm-21.503519,-9.144188c-1.829268,-1.311692 -3.851299,-2.542499 -5.442162,-3.988344c3.974321,2.324368 7.611953,4.942104 11.19358,7.566395c0.95108,0.923373 -1.659222,-0.86228 -2.14504,-1.161595c-1.21557,-0.795389 -2.415219,-1.602869 -3.606381,-2.416457l0.000002,0zm28.247578,3.750264c3.09191,-2.721904 5.976733,-5.575436 9.310267,-8.152348c-0.558194,1.109489 -2.355064,2.437074 -3.484869,3.579747c-1.886766,1.658459 -3.650397,3.411974 -5.807961,4.898944c-0.269287,0.201103 -0.671398,-0.275224 -0.017408,-0.326343l-0.000027,0l-0.000002,0zm-6.69715,-2.582232c1.068281,-2.158859 2.617842,-4.213838 4.346595,-6.145968c-0.040178,1.071849 -1.873649,3.10336 -2.754929,4.432411c-0.498534,0.534823 -0.919034,1.387753 -1.591666,1.713558zm-13.680371,-2.768656c-0.744157,-0.766904 -2.984267,-2.552617 -2.566004,-2.79614c2.159755,1.691882 4.356395,3.438168 5.907857,5.438964c-1.321227,-0.71594 -2.271905,-1.749994 -3.341855,-2.642824l0.000002,0zm8.552564,-0.603562c-0.150607,-0.720227 0.316922,-4.158432 0.576655,-1.82382c0.000923,1.462743 0.217024,3.109433 -0.359242,4.440804c-0.246771,-0.855966 -0.1869,-1.747079 -0.217413,-2.616984z" fill-opacity="null" stroke-opacity="null" stroke-width="0" fill="#3E2A3C"/>
 </g>
</svg>